/* XPM */
static char *image_xpm[] = {
/* width height ncolors chars_per_pixel */
"16 16 7 1",
"  c #99ccff",
". c #ffffff",
"+ c #66ccff",
"@ c #ccffff",
"# c #6699ff",
"$ c #3399ff",
"% c #ccccff",
"................",
"................",
"................",
"................",
"%%.. . ..@%%#+#@",
". ..$.+..+@$.%@ ",
"..#$ . @% @#%...",
".%. +..@...%...@",
"% ..#..@+...%+$ ",
"................",
"................",
"................",
"................",
"................",
"................",
"................",
};