/* XPM */
static char *image_xpm[] = {
/* width height ncolors chars_per_pixel */
"32 32 9 1",
"  c #0099ff",
". c #0066ff",
"+ c #99ccff",
"@ c #ffffff",
"# c #66ccff",
"$ c #ccffff",
"% c #6699ff",
"& c #3399ff",
"* c #ccccff",
"@@@@@@@@@@@@@@@@@@@@@@@@@@@@@@@@",
"@@@@@@@@@@@@@@@@@@@@@@@@@@@@@@@@",
"@@@@@@@@@@@@@@@@@@@@@@@@@@@@@@@@",
"@@@@@@@@@@@@@@@@@@@@@@@@@@@@@@@@",
"@@@@@@@@@@@@@@@@@@@@@@@@@@@@@@@@",
"@@@@@@@@@@@@@@@@@@@@@@@@@@@@@@@@",
"@@@@@@@@@@@@@@@@@@@@@@@@@@@@@@@@",
"@@@@@@@@@@@@@@@@@@@@@@@@@@@@@@@@",
"@@*@@@@@@@@@*@@@@@@@$@@@*@*$*@$@",
"@+ $@@@@*.@@ #@@@@@ +@$  .   .&@",
"@+.@@@@@+ *@.+@@@@@ %@+ +*+$+#.@",
"@$+@@@@+&&@@&%@@@@@.+@+.@@@@@@$@",
"@@@@**#  @@@+&%@@@.&*@# $@@@@@@@",
"@@@@#.  $@@@@$@@@@$@@@+ @@@@@@@@",
"@@@@*@*&.*@@@@@@@@@@@@+#*@@@@@@@",
"@+&$@@@$& @@@@@*$@@@@@@@@@@@@$+@",
"@+.@@@@@+ *@@@@+.@@@@@@@@$%+%#.@",
"@+&@@@@@$&@@@@@+&@@@@@@@@%&&& #@",
"@@@@@@@@@@@@@@@@@@@@@@@@@@@@@@@@",
"@@@@@@@@@@@@@@@@@@@@@@@@@@@@@@@@",
"@@@@@@@@@@@@@@@@@@@@@@@@@@@@@@@@",
"@@@@@@@@@@@@@@@@@@@@@@@@@@@@@@@@",
"@@@@@@@@@@@@@@@@@@@@@@@@@@@@@@@@",
"@@@@@@@@@@@@@@@@@@@@@@@@@@@@@@@@",
"@@@@@@@@@@@@@@@@@@@@@@@@@@@@@@@@",
"@@@@@@@@@@@@@@@@@@@@@@@@@@@@@@@@",
"@@@@@@@@@@@@@@@@@@@@@@@@@@@@@@@@",
"@@@@@@@@@@@@@@@@@@@@@@@@@@@@@@@@",
"@@@@@@@@@@@@@@@@@@@@@@@@@@@@@@@@",
"@@@@@@@@@@@@@@@@@@@@@@@@@@@@@@@@",
"@@@@@@@@@@@@@@@@@@@@@@@@@@@@@@@@",
"@@@@@@@@@@@@@@@@@@@@@@@@@@@@@@@@",
};